External Loads File
version=1
nRows=46
nColumns=13
Range=5.000000e-03-10 seconds
endheader
time 	forceRightX 	forceRightY 	forceRightZ 	pointRightX 	pointRightY 	pointRightZ 	forceLeftX 	forceLeftY 	forceLeftZ 	pointLeftX 	pointLeftY 	pointLeftZ 		
2.505000 7.095536 969.914258 -0.000000 0.371440 0.208395 -0.147059 -16.514478 -96.740797 -0.000000 0.148233 0.446680 -0.376926
2.510000 16.097843 953.722588 -0.000000 0.368231 0.203678 -0.147043 -20.928850 -98.804412 -0.000000 0.153218 0.451717 -0.377206
2.515000 23.450088 934.861238 -0.000000 0.364868 0.199178 -0.146974 -25.176651 -100.963217 -0.000000 0.157789 0.456575 -0.377178
2.520000 30.716207 913.082385 -0.000000 0.361454 0.194627 -0.146942 -29.452322 -103.149550 -0.000000 0.162444 0.461349 -0.377174
2.525000 38.584708 888.176400 -0.000000 0.357877 0.190584 -0.146885 -33.868175 -105.276216 -0.000000 0.167685 0.466157 -0.377734
2.530000 45.008401 860.167606 -0.000000 0.354216 0.186778 -0.146888 -38.206214 -107.333699 -0.000000 0.172828 0.470487 -0.377240
2.535000 50.771248 829.087848 -0.000000 0.350464 0.182738 -0.146854 -42.554678 -109.199518 -0.000000 0.177585 0.474818 -0.377554
2.540000 56.417840 795.032581 -0.000000 0.346626 0.179236 -0.146847 -46.988488 -110.685796 -0.000000 0.182862 0.478854 -0.377626
2.545000 61.579416 758.235977 -0.000000 0.342631 0.176002 -0.146843 -51.468994 -111.540305 -0.000000 0.188243 0.482549 -0.377685
2.550000 66.312433 719.027718 -0.000000 0.338603 0.172928 -0.146799 -55.977763 -111.409807 -0.000000 0.193794 0.485918 -0.377796
2.555000 71.762884 677.714916 -0.000000 0.334188 0.169973 -0.146488 -60.618089 -109.812363 -0.000000 0.199712 0.489087 -0.377549
2.560000 75.689435 634.945599 -0.000000 0.329865 0.167278 -0.146451 -64.919381 -106.536850 -0.000000 0.205226 0.492294 -0.377648
2.565000 79.131511 590.993277 -0.000000 0.325503 0.164785 -0.146380 -68.933551 -101.101350 -0.000000 0.210763 0.495354 -0.377664
2.570000 82.490123 546.119536 -0.000000 0.320928 0.162561 -0.146316 -72.661079 -93.047534 -0.000000 0.216369 0.498200 -0.377637
2.575000 85.752722 500.593728 -0.000000 0.316173 0.160560 -0.146251 -76.072050 -81.953069 -0.000000 0.222010 0.500768 -0.377638
2.580000 89.178131 454.592511 -0.000000 0.311200 0.158759 -0.146131 -79.176663 -67.419911 -0.000000 0.227777 0.503172 -0.377645
2.585000 92.071562 408.437710 -0.000000 0.305963 0.157233 -0.145994 -81.807548 -49.367491 -0.000000 0.233123 0.505249 -0.377783
2.590000 95.222833 362.110943 -0.000000 0.300544 0.155954 -0.145848 -83.965491 -27.609109 -0.000000 0.238889 0.506673 -0.377686
2.595000 97.905962 315.894341 -0.000000 0.294877 0.154886 -0.145744 -85.431368 -2.399161 -0.000000 0.244248 0.508299 -0.378288
2.600000 100.296854 269.869897 -0.000000 0.289062 0.154222 -0.145723 -86.092142 26.057392 -0.000000 0.249728 0.509112 -0.378253
2.605000 102.364352 224.235330 -0.000000 0.282985 0.153810 -0.145780 -85.853916 57.464365 -0.000000 0.255118 0.509837 -0.378579
2.610000 103.962732 179.386642 -0.000000 0.276722 0.153736 -0.145769 -84.771787 91.516915 -0.000000 0.260312 0.510248 -0.378741
2.615000 105.227594 135.761987 -0.000000 0.270204 0.153951 -0.145791 -83.001313 128.055307 -0.000000 0.265332 0.510034 -0.378908
2.620000 106.200556 93.983450 -0.000000 0.263484 0.154464 -0.145850 -80.933488 166.894724 -0.000000 0.270037 0.509530 -0.379233
2.625000 106.991840 54.645944 -0.000000 0.256604 0.155321 -0.145816 -78.987435 207.935120 -0.000000 0.274590 0.508719 -0.379595
2.630000 107.538007 18.422887 -0.000000 0.249678 0.156407 -0.145582 -77.723642 250.970327 -0.000000 0.278983 0.507282 -0.380024
2.635000 107.698034 -14.110787 -0.000000 0.242690 0.157735 -0.145399 -77.459768 295.701791 -0.000000 0.283392 0.505193 -0.380425
2.640000 107.235285 -42.342763 -0.000000 0.235630 0.159381 -0.145472 -78.577447 341.580950 -0.000000 0.287805 0.503149 -0.380786
2.645000 106.015199 -65.718471 -0.000000 0.228943 0.161288 -0.145524 -81.699149 387.827516 -0.000000 0.292261 0.500881 -0.381113
2.650000 103.952255 -84.125078 -0.000000 0.222454 0.163450 -0.145636 -86.845365 433.649605 -0.000000 0.296729 0.498189 -0.381420
2.655000 101.142037 -97.704805 -0.000000 0.216261 0.165807 -0.145753 -94.266080 478.132807 -0.000000 0.301228 0.495247 -0.381688
2.660000 97.740645 -107.061900 -0.000000 0.210209 0.168483 -0.146020 -103.637765 520.525447 -0.000000 0.305783 0.491979 -0.382043
2.665000 94.076691 -113.009705 -0.000000 0.204332 0.171397 -0.146315 -114.811529 560.146070 -0.000000 0.310468 0.488512 -0.382200
2.670000 90.518080 -116.456161 -0.000000 0.198561 0.174698 -0.146540 -127.688159 596.428214 -0.000000 0.315164 0.485060 -0.382063
2.675000 87.330061 -118.246526 -0.000000 0.192873 0.178133 -0.146766 -142.064377 629.007366 -0.000000 0.319899 0.481557 -0.382085
2.680000 84.575253 -119.085571 -0.000000 0.187322 0.181931 -0.146950 -157.335388 657.830635 -0.000000 0.324630 0.477583 -0.382162
2.685000 82.130867 -119.490865 -0.000000 0.181939 0.185991 -0.147002 -172.501709 683.146167 -0.000000 0.329326 0.472376 -0.382203
2.690000 80.143129 -119.527636 -0.000000 0.176651 0.190438 -0.147209 -188.474894 704.879579 -0.000000 0.334006 0.467690 -0.382252
2.695000 78.457716 -119.285791 -0.000000 0.171462 0.195044 -0.147425 -204.420630 723.503645 -0.000000 0.338645 0.462722 -0.382402
2.700000 77.067833 -118.658202 -0.000000 0.166454 0.199916 -0.148215 -219.942338 739.458729 -0.000000 0.343269 0.457481 -0.382557
2.705000 76.038134 -117.487817 -0.000000 0.161515 0.205102 -0.148467 -234.594874 753.206311 -0.000000 0.347792 0.452069 -0.382682
2.710000 75.557036 -115.595394 -0.000000 0.156717 0.210462 -0.148796 -248.304277 765.078562 -0.000000 0.352244 0.446480 -0.382810
2.715000 75.744465 -112.914841 -0.000000 0.151991 0.216177 -0.149149 -260.374450 775.591532 -0.000000 0.356556 0.440663 -0.382883
2.720000 76.841631 -109.337932 -0.000000 0.147312 0.222073 -0.149455 -271.058888 784.919586 -0.000000 0.360603 0.434680 -0.382803
2.725000 78.782538 -104.967124 -0.000000 0.142712 0.228031 -0.149573 -278.753443 793.816374 -0.000000 0.365163 0.428417 -0.383232
2.730000 81.957828 -99.541823 -0.000000 0.138273 0.234184 -0.149652 -285.703100 801.627699 -0.000000 0.369090 0.422135 -0.383387
